<svg width="17" height="23" viewBox="0 0 17 23" fill="none" xmlns="http://www.w3.org/2000/svg">
<path d="M17 19.8333V6.375L10.625 0H2.83333C2.08189 0 1.36122 0.298511 0.829864 0.829864C0.298511 1.36122 0 2.08189 0 2.83333V19.8333C0 20.5848 0.298511 21.3054 0.829864 21.8368C1.36122 22.3682 2.08189 22.6667 2.83333 22.6667H14.1667C14.9181 22.6667 15.6388 22.3682 16.1701 21.8368C16.7015 21.3054 17 20.5848 17 19.8333ZM10.625 4.25C10.625 4.81359 10.8489 5.35409 11.2474 5.7526C11.6459 6.15112 12.1864 6.375 12.75 6.375H15.5833V12.75H1.41667V2.83333C1.41667 2.45761 1.56592 2.09728 1.8316 1.8316C2.09728 1.56592 2.45761 1.41667 2.83333 1.41667H10.625V4.25ZM1.41667 17V14.1667H4.25V17H1.41667ZM1.41667 18.4167H4.25V21.25H2.83333C2.45761 21.25 2.09728 21.1007 1.8316 20.8351C1.56592 20.5694 1.41667 20.2091 1.41667 19.8333V18.4167ZM5.66667 21.25V18.4167H9.91667V21.25H5.66667ZM11.3333 21.25V18.4167H15.5833V19.8333C15.5833 20.2091 15.4341 20.5694 15.1684 20.8351C14.9027 21.1007 14.5424 21.25 14.1667 21.25H11.3333ZM15.5833 17H11.3333V14.1667H15.5833V17ZM5.66667 17V14.1667H9.91667V17H5.66667Z" fill="#F8F6F0"/>
</svg>
