<svg width="17" height="17" viewBox="0 0 17 17" fill="none" xmlns="http://www.w3.org/2000/svg">
<path d="M14.5164 2.47143C13.7336 1.68464 12.8013 1.0609 11.7739 0.636594C10.7464 0.212284 9.64437 -0.00410211 8.53202 5.88889e-05C3.87111 5.88889e-05 0.0725766 3.78042 0.0683074 8.4214C0.0683074 9.90784 0.45894 11.3539 1.19645 12.6342L0 17L4.48694 15.8291C5.72766 16.503 7.11865 16.8556 8.53202 16.8544H8.53629C13.1983 16.8544 16.9957 13.0741 17 8.42884C17.0009 7.32178 16.7819 6.22548 16.3555 5.20304C15.929 4.18061 15.3047 3.25225 14.5164 2.47143ZM8.53202 15.4286C7.27172 15.4276 6.03477 15.09 4.95015 14.4511L4.694 14.2981L2.03214 14.9929L2.74297 12.4079L2.57647 12.1412C1.87184 11.0259 1.49918 9.73468 1.50169 8.41715C1.50169 4.56454 4.65771 1.42168 8.53629 1.42168C9.46029 1.42003 10.3755 1.60047 11.2291 1.9526C12.0827 2.30473 12.8579 2.82158 13.5099 3.47336C14.1641 4.1227 14.6827 4.89449 15.0358 5.74426C15.389 6.59403 15.5698 7.50497 15.5677 8.42459C15.5634 12.291 12.4074 15.4286 8.53202 15.4286ZM12.3903 10.1862C12.1801 10.081 11.1416 9.57209 10.9463 9.49984C10.752 9.43078 10.6101 9.39465 10.4713 9.60503C10.3294 9.81434 9.92378 10.2914 9.80211 10.4285C9.68043 10.5698 9.55449 10.5857 9.34317 10.4816C9.13291 10.3753 8.4509 10.1543 7.64402 9.43503C7.01431 8.87722 6.59273 8.18659 6.46679 7.97728C6.34511 7.76691 6.45505 7.65428 6.56071 7.5491C6.65356 7.4556 6.77097 7.3026 6.87663 7.18147C6.98336 7.06035 7.01858 6.9711 7.08796 6.83085C7.15733 6.68847 7.12424 6.56735 7.07195 6.46216C7.01858 6.35697 6.597 5.31892 6.41876 4.90029C6.24799 4.48698 6.07402 4.54436 5.94381 4.53904C5.82214 4.53161 5.68018 4.53161 5.53823 4.53161C5.43105 4.53432 5.32558 4.55903 5.22843 4.60419C5.13128 4.64935 5.04454 4.71398 4.97363 4.79404C4.77938 5.00442 4.23612 5.51335 4.23612 6.55141C4.23612 7.58947 4.99391 8.58715 5.10064 8.72847C5.20523 8.86978 6.58846 10.9937 8.71132 11.9075C9.21296 12.1253 9.60786 12.2538 9.91631 12.3516C10.4233 12.5131 10.8811 12.4886 11.2462 12.4366C11.6517 12.375 12.496 11.9266 12.6742 11.4346C12.8493 10.9416 12.8493 10.5209 12.7959 10.4327C12.7436 10.3435 12.6016 10.2914 12.3903 10.1862Z" fill="#F8F6F0"/>
</svg>
